Coordinates
version=1
nRows=10
nColumns=63
inDegrees=yes

Units are S.I. units (second, meters, Newtons, ...)
If the header above contains a line with 'inDegrees', this indicates whether rotational values are in degrees (yes) or radians (no).

endheader
time	pelvis_tilt	pelvis_list	pelvis_rotation	pelvis_tx	pelvis_ty	pelvis_tz	hip_flexion_r	hip_adduction_r	hip_rotation_r	knee_angle_r	knee_angle_r_beta	ankle_angle_r	subtalar_angle_r	mtp_angle_r	hip_flexion_l	hip_adduction_l	hip_rotation_l	knee_angle_l	knee_angle_l_beta	ankle_angle_l	subtalar_angle_l	mtp_angle_l	L5_S1_Flex_Ext	L5_S1_Lat_Bending	L5_S1_axial_rotation	L4_L5_Flex_Ext	L4_L5_Lat_Bending	L4_L5_axial_rotation	L3_L4_Flex_Ext	L3_L4_Lat_Bending	L3_L4_axial_rotation	L2_L3_Flex_Ext	L2_L3_Lat_Bending	L2_L3_axial_rotation	L1_L2_Flex_Ext	L1_L2_Lat_Bending	L1_L2_axial_rotation	L1_T12_Flex_Ext	L1_T12_Lat_Bending	L1_T12_axial_rotation	Abs_r3	Abs_r2	Abs_r1	Abs_t1	Abs_t2	neck_flexion	neck_bending	neck_rotation	arm_flex_r	arm_add_r	arm_rot_r	elbow_flex_r	pro_sup_r	wrist_flex_r	wrist_dev_r	arm_flex_l	arm_add_l	arm_rot_l	elbow_flex_l	pro_sup_l	wrist_flex_l	wrist_dev_l
      3.81818182	      6.13193988	    -15.59827098	     95.17077505	      0.14969082	      1.05142308	      0.45595048	     17.08144105	      0.64361800	    -19.15153684	     19.99334983	      0.34894978	     30.59192305	      2.87948493	      0.00000000	     14.87247853	     -2.94891084	     -1.46669976	     10.00706263	      0.17465619	     35.53073255	      6.65219785	      0.00000000	     -0.10168701	      0.14455026	     -1.20851800	     -0.18884295	      0.19225185	     -1.28405038	     -0.16706159	      0.35145950	     -1.28405038	     -0.11621809	      0.35145950	     -1.05745325	     -0.09442656	      0.29476689	     -0.98192088	     -0.05810396	      0.22390835	     -0.90638850	     -0.72634017	      1.63518145	     -6.72141458	      0.00000000	      0.00000000	     24.18353986	     -9.87713668	    -16.41740109	      7.92921263	    -20.94574420	    119.06946312	      2.80525866	      4.93100967	      0.52354072	    -11.76119349	      2.03277265	    -19.42610980	      5.44334671	     55.63524051	     88.89694136	      4.54899527	     12.62666119
      3.83636364	      5.62899959	    -15.55361855	     94.27586107	      0.15085301	      1.05121954	      0.45411267	     17.11603711	      0.46660016	    -18.14970473	     20.12504236	      0.35124825	     30.93965012	      2.61902194	      0.00000000	     14.20398855	     -2.36023927	      1.53940901	      9.31615354	      0.16259755	     34.31768985	      1.17026165	      0.00000000	     -0.11243862	      0.11131937	     -0.87315901	     -0.20880976	      0.14805477	     -0.92773145	     -0.18472541	      0.27066192	     -0.92773145	     -0.12850610	      0.27066192	     -0.76401414	     -0.10441050	      0.22700247	     -0.70944170	     -0.06424743	      0.17243371	     -0.65486926	     -0.80313781	      1.25926701	     -4.85624848	      0.00000000	      0.00000000	     24.70176991	     -9.64219445	    -17.23275916	      7.05276248	    -21.11373285	    113.62056675	      3.20982364	      4.46093921	      2.22898558	    -11.33872039	      3.54603686	    -19.46847805	      7.74488299	     53.60597759	     88.76300942	      3.57268475	     11.66759521
      3.85454545	      5.26969447	    -15.43520426	     93.27397254	      0.15217353	      1.05092626	      0.45192784	     16.97794024	      0.35793666	    -17.83054582	     20.20462017	      0.35263715	     31.24857467	      3.24510260	      0.00000000	     13.59884846	     -2.23852488	      1.12903859	      8.98066554	      0.15674218	     34.06276059	      0.10678326	      0.00000000	     -0.13085691	      0.09622368	     -0.57655060	     -0.24301437	      0.12797750	     -0.61258502	     -0.21498482	      0.23395827	     -0.61258502	     -0.14955636	      0.23395827	     -0.50448178	     -0.12151373	      0.19621934	     -0.46844737	     -0.07477164	      0.14905049	     -0.43241295	     -0.93469783	      1.08850157	     -3.20660149	      0.00000000	      0.00000000	     25.23997052	     -8.89962814	    -17.20895543	      6.40868524	    -21.20376385	    112.29630465	      3.07708915	      4.00577243	      3.17443606	    -10.91752331	      4.60589432	    -19.34499203	      9.04332971	     52.00566764	     88.66910528	      3.98854206	     11.43592575
      3.87272727	      4.90161422	    -15.40418055	     92.48117430	      0.15331380	      1.05045984	      0.44947366	     16.89236240	      0.22868759	    -17.39582313	     20.28411626	      0.35402461	     31.35451518	      3.11603368	      0.00000000	     13.05033700	     -1.95646509	      2.06584285	      8.55149385	      0.14925172	     33.52017872	     -2.39667488	      0.00000000	     -0.13126560	      0.08158302	     -0.34270714	     -0.24377334	      0.10850542	     -0.36412633	     -0.21565625	      0.19836097	     -0.36412633	     -0.15002345	      0.19836097	     -0.29986874	     -0.12189324	      0.16636410	     -0.27844955	     -0.07500516	      0.12637210	     -0.25703035	     -0.93761705	      0.92288349	     -1.90603428	      0.00000000	      0.00000000	     25.42822474	     -8.60348954	    -17.45158504	      5.61668741	    -21.36240236	    105.36252057	      3.68266821	      3.79422339	      5.03796896	    -10.21631066	      5.23002174	    -19.39311581	     10.64664801	     50.80156383	     88.55856084	      2.92674759	     10.16192962
      3.89090909	      4.56558583	    -15.43312020	     91.52762494	      0.15450771	      1.04985804	      0.44672218	     16.78785375	      0.09576925	    -17.23284421	     20.27847516	      0.35392616	     31.40714324	      3.57143393	      0.00000000	     12.53961024	     -1.80379320	      1.77814417	      8.12577926	      0.14182160	     33.39871876	     -3.26478968	      0.00000000	     -0.12507191	      0.07748384	     -0.17133360	     -0.23227104	      0.10305351	     -0.18204196	     -0.20548064	      0.18839421	     -0.18204196	     -0.14294469	      0.18839421	     -0.14991690	     -0.11614178	      0.15800505	     -0.13920855	     -0.07146609	      0.12002247	     -0.12850020	     -0.89337615	      0.87651272	     -0.95290611	      0.00000000	      0.00000000	     25.63346818	     -8.11312416	    -16.72630492	      5.19803007	    -21.46063593	    102.85667921	      3.78686457	      3.36889649	      6.27582675	     -9.67454079	      5.01277535	    -19.14801255	     10.39397466	     50.28684855	     88.51137903	      2.93923304	      9.88411116
      3.90909091	      4.41166481	    -15.53842408	     91.39255664	      0.15517471	      1.04908148	      0.44400437	     16.69027319	      0.00530263	    -17.51139285	     20.20078315	      0.35257018	     31.36226538	      3.39122123	      0.00000000	     12.36959285	     -1.71116620	      1.76718255	      8.00723015	      0.13975253	     33.62966472	     -3.34049660	      0.00000000	     -0.11464121	      0.08679230	     -0.13743622	     -0.21290020	      0.11543376	     -0.14602598	     -0.18834405	      0.21102679	     -0.14602598	     -0.13102344	      0.21102679	     -0.12025669	     -0.10645583	      0.17698685	     -0.11166693	     -0.06550599	      0.13444127	     -0.10307717	     -0.81887072	      0.98181183	     -0.76437903	      0.00000000	      0.00000000	     25.58885670	     -7.94700491	    -16.67766596	      4.85216489	    -21.49405369	    102.60424063	      3.76341901	      3.24908434	      6.33836062	     -9.63881347	      4.69254686	    -19.10236697	     10.29565131	     50.07464485	     88.45813083	      2.86111225	      9.93982896
      3.92727273	      4.33888204	    -15.74610599	     90.94105894	      0.15606953	      1.04831366	      0.44081729	     16.57517571	      0.08546508	    -17.52829520	     19.87137274	      0.34682088	     31.35879526	      3.69171654	      0.00000000	     11.94981223	     -1.73386188	      1.87847850	      7.23693632	      0.12630837	     33.35822359	     -3.62527899	      0.00000000	     -0.06935714	      0.11567618	     -0.05529946	     -0.12880315	      0.15384932	     -0.05875568	     -0.11394685	      0.28125506	     -0.05875568	     -0.07926828	      0.28125506	     -0.04838703	     -0.06440504	      0.23588686	     -0.04493082	     -0.03963067	      0.17918240	     -0.04147460	     -0.49541115	      1.30855207	     -0.30755903	      0.00000000	      0.00000000	     24.71429654	     -7.15216914	    -15.77072172	      4.26519893	    -21.58240565	     99.79752009	      3.87095401	      2.57898879	      7.16170334	     -9.57260359	      4.08291246	    -18.62144987	      9.55372714	     49.76689801	     88.44532846	      2.43181673	     10.36983009
      3.94545455	      4.24580423	    -15.85308788	     91.06935876	      0.15616242	      1.04753876	      0.43854673	     16.45640955	     -0.06375648	    -18.09880809	     19.74726603	      0.34465481	     31.57769362	      4.01984677	      0.00000000	     11.72302347	     -1.45864346	      4.96749606	      6.84011978	      0.11938261	     32.43333486	     -7.37585691	      0.00000000	     -0.06057178	      0.14120088	     -0.06579155	     -0.11248786	      0.18779716	     -0.06990352	     -0.09951338	      0.34331581	     -0.06990352	     -0.06922749	      0.34331581	     -0.05756761	     -0.05624696	      0.28793682	     -0.05345563	     -0.03461072	      0.21872016	     -0.04934366	     -0.43265819	      1.59729254	     -0.36591286	      0.00000000	      0.00000000	     23.78048393	     -6.72893630	    -15.37644154	      3.38989175	    -22.82008919	     80.59985477	      8.09364036	      4.80574986	      7.69861789	     -6.77123982	      3.77428064	    -18.34034408	      9.30693746	     49.42074211	     88.49277598	      2.35717680	     10.59973150
      3.96363636	      4.12380371	    -16.06119699	     91.28819763	      0.15675970	      1.04667249	      0.43685303	     16.49466531	     -0.17326197	    -18.33410257	     19.67018130	      0.34330943	     31.78753555	      3.83437539	      0.00000000	     11.80446925	     -1.34385773	      5.13753085	      6.76172354	      0.11801434	     32.25491461	     -7.26460629	      0.00000000	     -0.04653770	      0.15749657	     -0.06249570	     -0.08642517	      0.20947043	     -0.06640168	     -0.07645679	      0.38293715	     -0.06640168	     -0.05318794	      0.38293715	     -0.05468373	     -0.04321491	      0.32116700	     -0.05077775	     -0.02659164	      0.24396218	     -0.04687177	     -0.33241415	      1.78163266	     -0.34758231	      0.00000000	      0.00000000	     22.63138646	     -6.33111291	    -15.33312836	      3.14484571	    -22.90872461	     80.52303207	      8.10590866	      4.75967102	      7.74044728	     -6.83305767	      3.63867040	    -18.09771181	      9.25418325	     48.99770259	     88.55854547	      2.20954681	     10.62032305
      3.98181818	      4.28967867	    -16.39616676	     92.45303302	      0.15641057	      1.04568691	      0.43576579	     16.54565370	     -0.21814825	    -19.45029843	     19.44011953	      0.33929409	     31.82605766	      3.62504470	      0.00000000	     12.23640692	     -1.32523021	      6.26132863	      6.88041789	      0.12008595	     32.14259817	     -7.22010928	      0.00000000	     -0.01400029	      0.20595966	     -0.23440431	     -0.02599993	      0.27392635	     -0.24905458	     -0.02300107	      0.50077032	     -0.24905458	     -0.01600093	      0.50077032	     -0.20510378	     -0.01300067	      0.41999294	     -0.19045351	     -0.00799976	      0.31903151	     -0.17580324	     -0.10000265	      2.32985687	     -1.30368648	      0.00000000	      0.00000000	     21.43122350	     -6.28461263	    -15.17186744	      2.97680999	    -23.07342572	     80.25126597	      8.17740428	      4.81092229	      7.61855643	     -7.08458814	      3.50213790	    -17.88204795	      9.54778776	     48.42851461	     88.64584781	      1.47632576	      9.61913203
